<svg width="16" height="16" viewBox="0 0 16 16" xmlns="http://www.w3.org/2000/svg">
 <path d="m6.5312 0.17773a0.93901 0.93901 0 0 0-0.17578 0.0215c-3.6284 0.82077-6.2257 4.0011-6.2305 7.6699-3.85e-6 4.3526 3.6221 7.8809 8.0391 7.8809 3.5641-3e-3 6.7181-2.3153 7.7148-5.6875a0.93901 0.93901 0 0 0-1.3691-1.0801c-0.81739 0.46977-1.7503 0.71974-2.7012 0.72266-2.9759-1e-5 -5.3477-2.3311-5.3477-5.207 0.0017-1.0143 0.30663-2.0061 0.88086-2.8555a0.93901 0.93901 0 0 0-0.81055-1.4648zm-1.6973 2.6504c-0.13645 0.54606-0.25121 1.0998-0.25195 1.668a0.93901 0.93901 0 0 0 0 2e-3c4e-6 3.9138 3.2584 7.0859 7.2266 7.0859a0.93901 0.93901 0 0 0 2e-3 0c0.51226-1e-3 0.96048-0.28479 1.457-0.39062-1.1167 1.6314-2.9998 2.6774-5.1035 2.6797-3.424 1e-5 -6.1591-2.6882-6.1602-6.002v-2e-3c0.0034-2.0846 1.1026-3.9618 2.8301-5.041z"/>
</svg>
