<?xml version="1.0" encoding="UTF-8" standalone="no"?>
<!-- Created with Inkscape (http://www.inkscape.org/) -->

<svg
   xmlns:dc="http://purl.org/dc/elements/1.1/"
   xmlns:cc="http://creativecommons.org/ns#"
   xmlns:rdf="http://www.w3.org/1999/02/22-rdf-syntax-ns#"
   xmlns:svg="http://www.w3.org/2000/svg"
   xmlns="http://www.w3.org/2000/svg"
   xmlns:sodipodi="http://sodipodi.sourceforge.net/DTD/sodipodi-0.dtd"
   xmlns:inkscape="http://www.inkscape.org/namespaces/inkscape"
   width="16mm"
   height="16mm"
   viewBox="0 0 16 16"
   version="1.1"
   id="svg8"
   inkscape:version="0.92.4 5da689c313, 2019-01-14"
   sodipodi:docname="nightmode.src.svg">
  <defs
     id="defs2" />
  <sodipodi:namedview
     id="base"
     pagecolor="#ffffff"
     bordercolor="#666666"
     borderopacity="1.0"
     inkscape:pageopacity="0.0"
     inkscape:pageshadow="2"
     inkscape:zoom="8.2478261"
     inkscape:cx="13.965574"
     inkscape:cy="38.724586"
     inkscape:document-units="mm"
     inkscape:current-layer="svg8"
     showgrid="false"
     inkscape:window-width="1920"
     inkscape:window-height="1024"
     inkscape:window-x="0"
     inkscape:window-y="33"
     inkscape:window-maximized="1" />
  <metadata
     id="metadata5">
    <rdf:RDF>
      <cc:Work
         rdf:about="">
        <dc:format>image/svg+xml</dc:format>
        <dc:type
           rdf:resource="http://purl.org/dc/dcmitype/StillImage" />
        <dc:title></dc:title>
      </cc:Work>
    </rdf:RDF>
  </metadata>
  <path
     inkscape:connector-curvature="0"
     id="path4520"
     d="M 6.53125,0.17773 A 0.93901397,0.93901397 0 0 0 6.3554688,0.19923 C 2.7270744,1.02 0.12975568,4.20029 0.125,7.86914 0.12499615,12.22178 3.7471071,15.75002 8.1640625,15.75 11.728164,15.747 14.882169,13.43474 15.878906,10.0625 A 0.93901397,0.93901397 0 0 0 14.509766,8.98242 C 13.692379,9.45219 12.759461,9.70216 11.808594,9.70508 8.8327306,9.70507 6.4609404,7.37395 6.4609375,4.49805 6.4626375,3.48378 6.7675654,2.49194 7.3417969,1.64258 A 0.93901397,0.93901397 0 0 0 6.53125,0.17773 Z M 4.8339844,2.82812 C 4.6975338,3.37418 4.582771,3.92791 4.5820312,4.49609 a 0.93901397,0.93901397 0 0 0 0,0.002 c 4e-6,3.91382 3.2583942,7.08592 7.2265628,7.08593 a 0.93901397,0.93901397 0 0 0 0.002,0 c 0.51226,-0.001 0.960482,-0.28479 1.457031,-0.39062 -1.116654,1.63141 -2.999849,2.67743 -5.1035155,2.67969 -3.4239585,1e-5 -6.1590631,-2.68816 -6.1601563,-6.00196 v -0.002 c 0.0034,-2.08464 1.1026264,-3.96178 2.8300782,-5.04102 z"
     style="color:#000000;font-style:normal;font-variant:normal;font-weight:normal;font-stretch:normal;font-size:medium;line-height:normal;font-family:sans-serif;font-variant-ligatures:normal;font-variant-position:normal;font-variant-caps:normal;font-variant-numeric:normal;font-variant-alternates:normal;font-feature-settings:normal;text-indent:0;text-align:start;text-decoration:none;text-decoration-line:none;text-decoration-style:solid;text-decoration-color:#000000;letter-spacing:normal;word-spacing:normal;text-transform:none;writing-mode:lr-tb;direction:ltr;text-orientation:mixed;dominant-baseline:auto;baseline-shift:baseline;text-anchor:start;white-space:normal;shape-padding:0;clip-rule:nonzero;display:inline;overflow:visible;visibility:visible;opacity:1;isolation:auto;mix-blend-mode:normal;color-interpolation:sRGB;color-interpolation-filters:linearRGB;solid-color:#000000;solid-opacity:1;vector-effect:none;fill:#1a1a1a;fill-opacity:1;fill-rule:nonzero;stroke:none;stroke-width:1.87784016;stroke-linecap:round;stroke-linejoin:round;stroke-miterlimit:17.5;stroke-dasharray:none;stroke-dashoffset:0;stroke-opacity:1;color-rendering:auto;image-rendering:auto;shape-rendering:auto;text-rendering:auto;enable-background:accumulate" />
</svg>
